<svg width="100" height="100" viewBox="0 0 100 100" fill="none" xmlns="http://www.w3.org/2000/svg">
<ellipse cx="50" cy="50.5" rx="39" ry="39.5" fill="#F16529"/>
<path d="M50 2C23.4 2 2 23.4 2 50C2 76.6 23.4 98 50 98C76.6 98 98 76.6 98 50C98 23.4 76.6 2 50 2ZM50 88C29 88 12 71 12 50C12 29 29 12 50 12C71 12 88 29 88 50C88 71 71 88 50 88Z" fill="#F16529"/>
<path d="M34.8 25.4H37.2V28H40V20H37.2V22.6H34.8V20H32V28H34.8V25.4Z" fill="#EEEEEE"/>
<path d="M44.4 28H47V22.6H49.4V20H42V22.6H44.4V28Z" fill="#EEEEEE"/>
<path d="M53.6 24L55.4 27L57.2 24V28H60V20H57.2L55.4 22.8L53.6 20H50.8V28H53.6V24Z" fill="#EEEEEE"/>
<path d="M68 25.4H64.2V20H61.4V28H68V25.4Z" fill="#EEEEEE"/>
<path d="M28 32L32 76L50 80L68 76L72 32H28ZM63 46H50H42L43 50H50H62L60 68L50 72L40 68L38.4 60H44L45 64L50 66L55 64L56 56H50H38L36 40H50H64L63 46Z" fill="#EEEEEE"/>
</svg>
