<svg id="splitsvg" version="1.1" xmlns="http://www.w3.org/2000/svg" xmlns:xlink="http://www.w3.org/1999/xlink" width="1380" height="400"><g id="svgg"><path id="path0" d="M154.273 91.861 C 154.123 92.011,154.000 98.485,154.000 106.249 L 154.000 120.364 155.300 120.598 C 156.015 120.727,161.370 120.780,167.200 120.716 L 177.800 120.600 177.913 115.910 L 178.025 111.219 171.313 111.110 L 164.600 111.000 164.487 106.510 L 164.374 102.019 171.087 101.910 L 177.800 101.800 177.800 96.800 L 177.800 91.800 166.173 91.694 C 159.778 91.636,154.423 91.711,154.273 91.861 M188.291 92.108 C 188.183 92.388,188.065 94.673,188.028 97.186 L 187.960 101.757 192.380 105.998 C 197.865 111.262,197.863 111.145,192.500 111.286 L 188.200 111.400 188.085 115.594 C 187.932 121.169,186.932 120.748,200.416 120.788 C 213.314 120.826,212.111 121.377,212.033 115.464 L 211.974 111.000 207.718 106.770 C 202.517 101.602,202.532 101.877,207.463 101.969 C 210.019 102.016,211.624 101.884,211.792 101.612 C 211.997 101.282,212.136 95.266,212.015 92.000 C 211.991 91.355,188.538 91.462,188.291 92.108 M222.267 91.867 C 222.120 92.013,222.000 94.311,222.000 96.973 L 222.000 101.814 226.400 106.200 C 231.736 111.519,231.728 111.148,226.500 111.286 L 222.200 111.400 222.086 115.768 C 221.943 121.244,220.897 120.788,233.600 120.788 C 247.332 120.789,246.000 121.340,246.000 115.662 L 246.000 111.017 241.510 106.732 C 236.379 101.834,236.382 101.863,241.098 101.967 C 246.275 102.081,246.000 102.384,246.000 96.557 L 246.000 91.600 234.267 91.600 C 227.813 91.600,222.413 91.720,222.267 91.867 M122.814 135.900 C 122.822 136.725,122.993 139.110,123.195 141.200 C 124.164 151.258,124.412 153.996,125.762 169.600 C 126.095 173.450,126.554 178.310,126.783 180.400 C 127.011 182.490,127.561 188.250,128.005 193.200 C 128.448 198.150,128.992 203.910,129.213 206.000 C 129.434 208.090,129.891 212.950,130.229 216.800 C 130.567 220.650,131.184 227.580,131.600 232.200 C 132.016 236.820,132.638 243.750,132.982 247.600 C 133.326 251.450,133.784 256.310,134.000 258.400 C 134.385 262.129,135.592 275.118,136.434 284.600 C 137.090 291.986,136.936 291.667,140.213 292.469 C 144.255 293.458,147.339 294.277,158.000 297.193 C 159.650 297.644,162.980 298.542,165.400 299.188 C 167.820 299.834,170.790 300.628,172.000 300.953 C 176.340 302.116,192.276 306.426,196.079 307.465 L 199.958 308.525 204.079 307.428 C 209.432 306.002,228.189 300.932,230.000 300.421 C 230.770 300.204,233.560 299.460,236.200 298.768 C 241.421 297.399,248.690 295.416,250.600 294.840 C 251.260 294.640,254.140 293.894,257.000 293.181 C 263.114 291.658,263.010 291.751,263.329 287.505 C 263.560 284.426,263.910 280.648,265.432 264.800 C 266.019 258.695,266.877 249.325,268.401 232.400 C 268.826 227.670,269.542 219.930,269.992 215.200 C 270.442 210.470,270.984 204.710,271.197 202.400 C 271.792 195.962,273.129 181.556,274.019 172.000 C 274.459 167.270,274.996 161.330,275.212 158.800 C 275.429 156.270,275.790 152.310,276.015 150.000 C 276.824 141.716,277.317 135.666,277.246 134.900 C 277.209 134.502,261.469 134.400,200.000 134.400 L 122.800 134.400 122.814 135.900 M247.236 175.481 C 246.886 180.365,246.420 184.541,246.200 184.760 C 245.980 184.979,241.480 186.981,236.200 189.210 C 230.920 191.438,223.090 194.753,218.800 196.575 C 214.510 198.398,208.705 200.844,205.900 202.010 C 203.095 203.177,200.800 204.282,200.800 204.466 C 200.800 204.650,210.599 204.800,222.576 204.800 C 234.553 204.800,244.433 204.935,244.531 205.100 C 244.629 205.265,244.544 207.290,244.343 209.600 C 244.141 211.910,243.539 219.200,243.005 225.800 C 240.534 256.323,239.870 263.425,239.447 263.855 C 239.201 264.105,237.830 264.615,236.400 264.987 C 234.970 265.359,233.260 265.818,232.600 266.006 C 227.652 267.419,225.076 268.125,223.000 268.637 C 221.680 268.963,220.060 269.404,219.400 269.617 C 218.740 269.830,215.590 270.726,212.400 271.607 C 209.210 272.489,205.700 273.489,204.600 273.829 C 200.764 275.017,199.255 274.992,194.970 273.668 C 190.597 272.316,182.449 269.919,178.400 268.792 C 174.192 267.622,162.258 264.093,161.533 263.805 C 160.678 263.465,160.301 260.175,158.540 237.700 L 158.282 234.400 167.733 234.400 L 177.185 234.400 177.373 235.300 C 177.476 235.795,177.771 238.990,178.028 242.400 C 178.535 249.128,178.635 249.426,180.528 249.799 C 181.227 249.937,182.250 250.204,182.800 250.392 C 183.350 250.580,187.545 251.750,192.122 252.991 L 200.444 255.249 205.922 253.587 C 208.935 252.673,212.570 251.569,214.000 251.133 C 215.430 250.698,217.590 250.058,218.800 249.711 C 222.101 248.765,221.936 249.251,222.583 238.585 C 222.903 233.313,223.289 227.947,223.442 226.661 C 223.655 224.861,223.590 224.238,223.160 223.963 C 222.841 223.759,208.475 223.609,189.847 223.616 C 171.833 223.622,156.983 223.517,156.847 223.381 C 156.711 223.246,156.483 221.035,156.340 218.468 C 156.198 215.900,155.945 211.778,155.780 209.306 L 155.478 204.811 157.639 203.843 C 158.828 203.311,162.050 201.939,164.800 200.794 C 167.550 199.649,170.970 198.211,172.400 197.600 C 173.830 196.989,177.250 195.546,180.000 194.394 C 182.750 193.242,188.060 190.997,191.800 189.405 C 195.540 187.813,199.265 186.272,200.079 185.982 C 203.401 184.797,200.961 184.688,177.588 184.980 C 161.075 185.186,154.014 185.146,153.829 184.846 C 153.684 184.612,153.198 181.940,152.751 178.910 C 152.303 175.879,151.716 171.913,151.447 170.097 C 151.177 168.280,151.067 166.615,151.201 166.398 C 151.540 165.849,246.840 165.653,247.436 166.200 C 247.750 166.488,247.695 169.080,247.236 175.481  M -25 0 L -5 0 L -5 20 L -25 20 Z M 405 0 L 425 0 L 425 20 L 405 20 Z" stroke="none" fill="#f9fafb" fill-rule="evenodd" transform="translate(30,0)"></path><path id="path1" d="M194.700 17.474 C 193.215 17.563,192.000 17.763,192.000 17.918 C 192.001 18.073,189.796 18.202,187.100 18.205 C 181.760 18.210,176.263 18.665,175.000 19.205 C 174.560 19.393,173.120 19.660,171.800 19.797 C 166.886 20.308,165.791 20.486,165.420 20.839 C 165.211 21.037,164.277 21.200,163.344 21.200 C 162.411 21.200,161.536 21.380,161.400 21.600 C 161.264 21.820,160.454 22.000,159.600 22.000 C 158.746 22.000,157.936 22.180,157.800 22.400 C 157.664 22.620,157.034 22.800,156.400 22.800 C 155.766 22.800,155.136 22.980,155.000 23.200 C 154.864 23.420,154.144 23.600,153.400 23.600 C 152.656 23.600,151.936 23.780,151.800 24.000 C 151.664 24.220,151.023 24.400,150.376 24.400 C 149.729 24.400,149.200 24.580,149.200 24.800 C 149.200 25.020,148.581 25.200,147.824 25.200 C 147.067 25.200,146.336 25.380,146.200 25.600 C 146.064 25.820,145.524 26.000,145.000 26.000 C 144.476 26.000,143.936 26.180,143.800 26.400 C 143.664 26.620,143.124 26.800,142.600 26.800 C 142.076 26.800,141.536 26.980,141.400 27.200 C 141.264 27.420,140.724 27.600,140.200 27.600 C 139.676 27.600,139.136 27.780,139.000 28.000 C 138.864 28.220,138.403 28.400,137.976 28.400 C 137.549 28.400,137.200 28.580,137.200 28.800 C 137.200 29.020,136.660 29.200,136.000 29.200 C 135.340 29.200,134.800 29.380,134.800 29.600 C 134.800 29.820,134.361 30.000,133.824 30.000 C 133.287 30.000,132.736 30.180,132.600 30.400 C 132.464 30.620,132.003 30.800,131.576 30.800 C 131.149 30.800,130.800 30.980,130.800 31.200 C 130.800 31.420,130.440 31.600,130.000 31.600 C 129.560 31.600,129.200 31.780,129.200 32.000 C 129.200 32.220,128.761 32.400,128.224 32.400 C 127.687 32.400,127.136 32.580,127.000 32.800 C 126.864 33.020,126.403 33.200,125.976 33.200 C 125.549 33.200,125.200 33.380,125.200 33.600 C 125.200 33.820,124.840 34.000,124.400 34.000 C 123.960 34.000,123.600 34.180,123.600 34.400 C 123.600 34.620,123.240 34.800,122.800 34.800 C 122.360 34.800,122.000 34.980,122.000 35.200 C 122.000 35.420,121.640 35.600,121.200 35.600 C 120.760 35.600,120.400 35.780,120.400 36.000 C 120.400 36.220,120.021 36.400,119.557 36.400 C 118.969 36.400,118.785 36.583,118.947 37.005 C 119.129 37.479,118.965 37.556,118.189 37.362 C 117.583 37.209,117.200 37.285,117.200 37.557 C 117.200 37.800,116.840 38.000,116.400 38.000 C 115.960 38.000,115.600 38.138,115.600 38.307 C 115.600 38.476,114.622 39.037,113.427 39.553 C 112.231 40.069,110.926 40.792,110.527 41.160 C 110.127 41.528,108.945 42.228,107.900 42.716 C 106.855 43.205,106.000 43.794,106.000 44.026 C 106.000 44.258,105.850 44.355,105.667 44.241 C 105.382 44.065,102.597 45.682,102.000 46.370 C 101.890 46.496,101.159 46.925,100.376 47.322 C 99.592 47.719,98.439 48.484,97.813 49.022 C 97.188 49.560,96.551 50.000,96.399 50.000 C 96.247 50.000,95.742 50.315,95.276 50.700 C 94.811 51.085,93.433 52.106,92.215 52.970 C 90.997 53.833,90.000 54.688,90.000 54.870 C 90.000 55.051,89.814 55.200,89.586 55.200 C 89.358 55.200,88.722 55.605,88.172 56.100 C 85.899 58.148,85.589 58.400,85.347 58.400 C 85.208 58.400,84.803 58.724,84.447 59.119 C 84.091 59.514,83.201 60.257,82.469 60.768 C 79.137 63.098,63.210 79.013,60.752 82.469 C 60.232 83.201,59.220 84.423,58.503 85.183 C 57.786 85.944,57.200 86.701,57.200 86.865 C 57.200 87.029,56.789 87.577,56.286 88.082 C 55.783 88.587,54.436 90.260,53.293 91.800 C 52.149 93.340,51.055 94.791,50.861 95.025 C 50.667 95.259,50.277 95.889,49.994 96.425 C 49.712 96.961,49.365 97.490,49.224 97.600 C 48.699 98.009,45.045 103.827,44.642 104.893 C 44.413 105.502,44.085 106.000,43.914 106.000 C 43.744 106.000,43.206 106.855,42.718 107.900 C 42.231 108.945,41.614 110.024,41.347 110.298 C 41.079 110.572,40.358 111.832,39.745 113.098 C 39.131 114.364,38.488 115.460,38.315 115.533 C 38.142 115.607,38.000 116.012,38.000 116.433 C 38.000 116.855,37.820 117.200,37.600 117.200 C 37.380 117.200,37.200 117.560,37.200 118.000 C 37.200 118.440,37.020 118.800,36.800 118.800 C 36.580 118.800,36.400 119.160,36.400 119.600 C 36.400 120.040,36.220 120.400,36.000 120.400 C 35.780 120.400,35.600 120.760,35.600 121.200 C 35.600 121.640,35.420 122.000,35.200 122.000 C 34.980 122.000,34.800 122.360,34.800 122.800 C 34.800 123.240,34.620 123.600,34.400 123.600 C 34.180 123.600,34.000 123.960,34.000 124.400 C 34.000 124.840,33.820 125.200,33.600 125.200 C 33.380 125.200,33.200 125.549,33.200 125.976 C 33.200 126.403,33.020 126.864,32.800 127.000 C 32.580 127.136,32.400 127.687,32.400 128.224 C 32.400 128.761,32.220 129.200,32.000 129.200 C 31.780 129.200,31.600 129.560,31.600 130.000 C 31.600 130.440,31.420 130.800,31.200 130.800 C 30.980 130.800,30.800 131.340,30.800 132.000 C 30.800 132.660,30.620 133.200,30.400 133.200 C 30.180 133.200,30.000 133.560,30.000 134.000 C 30.000 134.440,29.820 134.800,29.600 134.800 C 29.380 134.800,29.200 135.340,29.200 136.000 C 29.200 136.660,29.020 137.200,28.800 137.200 C 28.580 137.200,28.400 137.549,28.400 137.976 C 28.400 138.403,28.220 138.864,28.000 139.000 C 27.780 139.136,27.600 139.676,27.600 140.200 C 27.600 140.724,27.420 141.264,27.200 141.400 C 26.980 141.536,26.800 142.076,26.800 142.600 C 26.800 143.124,26.620 143.664,26.400 143.800 C 26.180 143.936,26.000 144.476,26.000 145.000 C 26.000 145.524,25.820 146.064,25.600 146.200 C 25.380 146.336,25.200 147.067,25.200 147.824 C 25.200 148.581,25.020 149.200,24.800 149.200 C 24.580 149.200,24.400 149.729,24.400 150.376 C 24.400 151.023,24.220 151.664,24.000 151.800 C 23.780 151.936,23.600 152.656,23.600 153.400 C 23.600 154.144,23.420 154.864,23.200 155.000 C 22.980 155.136,22.800 155.766,22.800 156.400 C 22.800 157.034,22.620 157.664,22.400 157.800 C 22.180 157.936,22.000 158.746,22.000 159.600 C 22.000 160.454,21.820 161.264,21.600 161.400 C 21.380 161.536,21.200 162.411,21.200 163.344 C 21.200 164.277,21.037 165.211,20.839 165.420 C 20.486 165.791,20.308 166.886,19.797 171.800 C 19.660 173.120,19.393 174.560,19.205 175.000 C 18.673 176.244,18.219 181.719,18.209 187.000 C 18.204 189.640,18.032 191.921,17.827 192.069 C 17.618 192.219,17.454 195.718,17.454 200.000 C 17.454 204.282,17.618 207.781,17.827 207.931 C 18.032 208.079,18.204 210.360,18.209 213.000 C 18.219 218.281,18.673 223.756,19.205 225.000 C 19.393 225.440,19.660 226.880,19.797 228.200 C 20.308 233.114,20.486 234.209,20.839 234.580 C 21.037 234.789,21.200 235.723,21.200 236.656 C 21.200 237.589,21.380 238.464,21.600 238.600 C 21.820 238.736,22.000 239.546,22.000 240.400 C 22.000 241.254,22.180 242.064,22.400 242.200 C 22.620 242.336,22.800 242.966,22.800 243.600 C 22.800 244.234,22.980 244.864,23.200 245.000 C 23.420 245.136,23.600 245.856,23.600 246.600 C 23.600 247.344,23.780 248.064,24.000 248.200 C 24.220 248.336,24.400 248.977,24.400 249.624 C 24.400 250.271,24.580 250.800,24.800 250.800 C 25.020 250.800,25.200 251.419,25.200 252.176 C 25.200 252.933,25.380 253.664,25.600 253.800 C 25.820 253.936,26.000 254.476,26.000 255.000 C 26.000 255.524,26.180 256.064,26.400 256.200 C 26.620 256.336,26.800 256.876,26.800 257.400 C 26.800 257.924,26.980 258.464,27.200 258.600 C 27.420 258.736,27.600 259.276,27.600 259.800 C 27.600 260.324,27.780 260.864,28.000 261.000 C 28.220 261.136,28.400 261.597,28.400 262.024 C 28.400 262.451,28.580 262.800,28.800 262.800 C 29.020 262.800,29.200 263.340,29.200 264.000 C 29.200 264.660,29.380 265.200,29.600 265.200 C 29.820 265.200,30.000 265.560,30.000 266.000 C 30.000 266.440,30.180 266.800,30.400 266.800 C 30.620 266.800,30.800 267.340,30.800 268.000 C 30.800 268.660,30.980 269.200,31.200 269.200 C 31.420 269.200,31.600 269.560,31.600 270.000 C 31.600 270.440,31.780 270.800,32.000 270.800 C 32.220 270.800,32.400 271.239,32.400 271.776 C 32.400 272.313,32.580 272.864,32.800 273.000 C 33.020 273.136,33.200 273.597,33.200 274.024 C 33.200 274.451,33.380 274.800,33.600 274.800 C 33.820 274.800,34.000 275.160,34.000 275.600 C 34.000 276.040,34.180 276.400,34.400 276.400 C 34.620 276.400,34.800 276.760,34.800 277.200 C 34.800 277.640,34.980 278.000,35.200 278.000 C 35.420 278.000,35.600 278.360,35.600 278.800 C 35.600 279.240,35.780 279.600,36.000 279.600 C 36.220 279.600,36.400 279.960,36.400 280.400 C 36.400 280.840,36.580 281.200,36.800 281.200 C 37.020 281.200,37.200 281.560,37.200 282.000 C 37.200 282.440,37.380 282.800,37.600 282.800 C 37.820 282.800,38.000 283.145,38.000 283.567 C 38.000 283.988,38.142 284.393,38.315 284.467 C 38.488 284.540,39.131 285.636,39.745 286.902 C 40.358 288.168,41.079 289.428,41.347 289.702 C 41.614 289.976,42.231 291.055,42.718 292.100 C 43.206 293.145,43.744 294.000,43.914 294.000 C 44.085 294.000,44.413 294.498,44.642 295.107 C 45.045 296.173,48.699 301.991,49.224 302.400 C 49.365 302.510,49.712 303.039,49.994 303.575 C 50.277 304.111,50.667 304.741,50.861 304.975 C 51.055 305.209,52.149 306.660,53.293 308.200 C 54.436 309.740,55.783 311.413,56.286 311.918 C 56.789 312.423,57.200 312.971,57.200 313.135 C 57.200 313.299,57.786 314.056,58.503 314.817 C 59.220 315.577,60.232 316.799,60.752 317.531 C 63.210 320.987,79.137 336.902,82.469 339.232 C 83.201 339.743,84.091 340.486,84.447 340.881 C 84.803 341.276,85.208 341.600,85.347 341.600 C 85.486 341.600,85.954 341.915,86.386 342.300 C 86.819 342.685,87.584 343.366,88.086 343.813 C 88.589 344.260,90.260 345.562,91.800 346.706 C 93.340 347.850,94.791 348.945,95.025 349.139 C 95.259 349.333,95.889 349.723,96.425 350.006 C 96.961 350.288,97.490 350.628,97.600 350.761 C 98.067 351.324,101.083 353.200,101.522 353.200 C 101.785 353.200,102.000 353.338,102.000 353.506 C 102.000 353.914,105.167 355.827,105.633 355.700 C 105.835 355.645,106.000 355.779,106.000 355.998 C 106.000 356.217,106.855 356.795,107.900 357.284 C 108.945 357.772,110.127 358.472,110.527 358.840 C 110.926 359.208,112.231 359.931,113.427 360.447 C 114.622 360.963,115.600 361.524,115.600 361.693 C 115.600 361.862,115.960 362.000,116.400 362.000 C 116.840 362.000,117.200 362.200,117.200 362.443 C 117.200 362.715,117.583 362.791,118.189 362.638 C 118.965 362.444,119.129 362.521,118.947 362.995 C 118.785 363.417,118.969 363.600,119.557 363.600 C 120.021 363.600,120.400 363.780,120.400 364.000 C 120.400 364.220,120.670 364.400,121.000 364.400 C 121.330 364.400,121.603 364.085,121.606 363.700 C 121.611 363.135,121.681 363.108,121.969 363.564 C 122.165 363.874,122.233 364.369,122.120 364.664 C 121.988 365.008,122.217 365.200,122.757 365.200 C 123.221 365.200,123.600 365.380,123.600 365.600 C 123.600 365.820,123.960 366.000,124.400 366.000 C 124.840 366.000,125.200 366.180,125.200 366.400 C 125.200 366.620,125.549 366.800,125.976 366.800 C 126.403 366.800,126.864 366.980,127.000 367.200 C 127.136 367.420,127.687 367.600,128.224 367.600 C 128.761 367.600,129.200 367.780,129.200 368.000 C 129.200 368.220,129.560 368.400,130.000 368.400 C 130.440 368.400,130.800 368.580,130.800 368.800 C 130.800 369.020,131.149 369.200,131.576 369.200 C 132.003 369.200,132.464 369.380,132.600 369.600 C 132.736 369.820,133.287 370.000,133.824 370.000 C 134.361 370.000,134.800 370.180,134.800 370.400 C 134.800 370.620,135.340 370.800,136.000 370.800 C 136.660 370.800,137.200 370.980,137.200 371.200 C 137.200 371.420,137.549 371.600,137.976 371.600 C 138.403 371.600,138.864 371.780,139.000 372.000 C 139.136 372.220,139.676 372.400,140.200 372.400 C 140.724 372.400,141.264 372.580,141.400 372.800 C 141.536 373.020,142.076 373.200,142.600 373.200 C 143.124 373.200,143.664 373.380,143.800 373.600 C 143.936 373.820,144.476 374.000,145.000 374.000 C 145.524 374.000,146.064 374.180,146.200 374.400 C 146.336 374.620,147.067 374.800,147.824 374.800 C 148.581 374.800,149.200 374.980,149.200 375.200 C 149.200 375.420,149.729 375.600,150.376 375.600 C 151.023 375.600,151.664 375.780,151.800 376.000 C 151.936 376.220,152.656 376.400,153.400 376.400 C 154.144 376.400,154.864 376.580,155.000 376.800 C 155.136 377.020,155.766 377.200,156.400 377.200 C 157.034 377.200,157.664 377.380,157.800 377.600 C 157.936 377.820,158.746 378.000,159.600 378.000 C 160.454 378.000,161.264 378.180,161.400 378.400 C 161.536 378.620,162.411 378.800,163.344 378.800 C 164.277 378.800,165.211 378.963,165.420 379.161 C 165.791 379.514,166.886 379.692,171.800 380.203 C 173.120 380.340,174.560 380.607,175.000 380.795 C 176.244 381.327,181.719 381.781,187.000 381.791 C 189.640 381.796,191.921 381.968,192.069 382.173 C 192.219 382.382,195.718 382.546,200.000 382.546 C 204.282 382.546,207.781 382.382,207.931 382.173 C 208.079 381.968,210.360 381.796,213.000 381.791 C 218.281 381.781,223.756 381.327,225.000 380.795 C 225.440 380.607,226.880 380.340,228.200 380.203 C 233.114 379.692,234.209 379.514,234.580 379.161 C 234.789 378.963,235.723 378.800,236.656 378.800 C 237.589 378.800,238.464 378.620,238.600 378.400 C 238.736 378.180,239.546 378.000,240.400 378.000 C 241.254 378.000,242.064 377.820,242.200 377.600 C 242.336 377.380,242.966 377.200,243.600 377.200 C 244.234 377.200,244.864 377.020,245.000 376.800 C 245.136 376.580,245.856 376.400,246.600 376.400 C 247.344 376.400,248.064 376.220,248.200 376.000 C 248.336 375.780,248.977 375.600,249.624 375.600 C 250.271 375.600,250.800 375.420,250.800 375.200 C 250.800 374.980,251.419 374.800,252.176 374.800 C 252.933 374.800,253.664 374.620,253.800 374.400 C 253.936 374.180,254.476 374.000,255.000 374.000 C 255.524 374.000,256.064 373.820,256.200 373.600 C 256.336 373.380,256.876 373.200,257.400 373.200 C 257.924 373.200,258.464 373.020,258.600 372.800 C 258.736 372.580,259.276 372.400,259.800 372.400 C 260.324 372.400,260.864 372.220,261.000 372.000 C 261.136 371.780,261.597 371.600,262.024 371.600 C 262.451 371.600,262.800 371.420,262.800 371.200 C 262.800 370.980,263.340 370.800,264.000 370.800 C 264.660 370.800,265.200 370.620,265.200 370.400 C 265.200 370.180,265.639 370.000,266.176 370.000 C 266.713 370.000,267.264 369.820,267.400 369.600 C 267.536 369.380,267.997 369.200,268.424 369.200 C 268.851 369.200,269.200 369.020,269.200 368.800 C 269.200 368.580,269.560 368.400,270.000 368.400 C 270.440 368.400,270.800 368.220,270.800 368.000 C 270.800 367.780,271.239 367.600,271.776 367.600 C 272.313 367.600,272.864 367.420,273.000 367.200 C 273.136 366.980,273.597 366.800,274.024 366.800 C 274.451 366.800,274.800 366.620,274.800 366.400 C 274.800 366.180,275.160 366.000,275.600 366.000 C 276.040 366.000,276.400 365.820,276.400 365.600 C 276.400 365.380,276.760 365.200,277.200 365.200 C 277.640 365.200,278.000 365.020,278.000 364.800 C 278.000 364.580,278.360 364.400,278.800 364.400 C 279.240 364.400,279.600 364.220,279.600 364.000 C 279.600 363.780,279.979 363.600,280.443 363.600 C 280.983 363.600,281.212 363.408,281.080 363.064 C 280.967 362.769,281.035 362.274,281.231 361.964 C 281.519 361.508,281.589 361.535,281.594 362.100 C 281.597 362.485,281.870 362.800,282.200 362.800 C 282.530 362.800,282.800 362.620,282.800 362.400 C 282.800 362.180,283.160 362.000,283.600 362.000 C 284.040 362.000,284.400 361.862,284.400 361.693 C 284.400 361.524,285.378 360.963,286.573 360.447 C 287.769 359.931,289.074 359.208,289.473 358.840 C 289.873 358.472,291.055 357.772,292.100 357.284 C 293.145 356.795,294.000 356.217,294.000 355.998 C 294.000 355.779,294.165 355.645,294.367 355.700 C 294.833 355.827,298.000 353.914,298.000 353.506 C 298.000 353.338,298.215 353.200,298.478 353.200 C 298.917 353.200,301.933 351.324,302.400 350.761 C 302.510 350.628,303.039 350.288,303.575 350.006 C 304.111 349.723,304.741 349.333,304.975 349.139 C 305.209 348.945,306.660 347.851,308.200 346.707 C 309.740 345.564,311.413 344.217,311.918 343.714 C 312.423 343.211,312.971 342.800,313.135 342.800 C 313.299 342.800,314.056 342.214,314.817 341.497 C 315.577 340.780,316.799 339.768,317.531 339.248 C 320.821 336.909,336.909 320.821,339.248 317.531 C 339.768 316.799,340.780 315.577,341.497 314.817 C 342.214 314.056,342.800 313.299,342.800 313.135 C 342.800 312.971,343.211 312.423,343.714 311.918 C 344.217 311.413,345.564 309.740,346.707 308.200 C 347.851 306.660,348.945 305.209,349.139 304.975 C 349.333 304.741,349.723 304.111,350.006 303.575 C 350.288 303.039,350.635 302.510,350.776 302.400 C 351.301 301.991,354.955 296.173,355.358 295.107 C 355.587 294.498,355.915 294.000,356.086 294.000 C 356.256 294.000,356.794 293.145,357.282 292.100 C 357.769 291.055,358.386 289.976,358.653 289.702 C 358.921 289.428,359.642 288.168,360.255 286.902 C 360.869 285.636,361.512 284.540,361.685 284.467 C 361.858 284.393,362.000 283.988,362.000 283.567 C 362.000 283.145,362.180 282.800,362.400 282.800 C 362.620 282.800,362.800 282.440,362.800 282.000 C 362.800 281.560,362.980 281.200,363.200 281.200 C 363.420 281.200,363.600 280.840,363.600 280.400 C 363.600 279.960,363.780 279.600,364.000 279.600 C 364.220 279.600,364.400 279.240,364.400 278.800 C 364.400 278.360,364.580 278.000,364.800 278.000 C 365.020 278.000,365.200 277.640,365.200 277.200 C 365.200 276.760,365.380 276.400,365.600 276.400 C 365.820 276.400,366.000 276.040,366.000 275.600 C 366.000 275.160,366.180 274.800,366.400 274.800 C 366.620 274.800,366.800 274.451,366.800 274.024 C 366.800 273.597,366.980 273.136,367.200 273.000 C 367.420 272.864,367.600 272.313,367.600 271.776 C 367.600 271.239,367.780 270.800,368.000 270.800 C 368.220 270.800,368.400 270.440,368.400 270.000 C 368.400 269.560,368.580 269.200,368.800 269.200 C 369.020 269.200,369.200 268.660,369.200 268.000 C 369.200 267.340,369.380 266.800,369.600 266.800 C 369.820 266.800,370.000 266.440,370.000 266.000 C 370.000 265.560,370.180 265.200,370.400 265.200 C 370.620 265.200,370.800 264.660,370.800 264.000 C 370.800 263.340,370.980 262.800,371.200 262.800 C 371.420 262.800,371.600 262.451,371.600 262.024 C 371.600 261.597,371.780 261.136,372.000 261.000 C 372.220 260.864,372.400 260.324,372.400 259.800 C 372.400 259.276,372.580 258.736,372.800 258.600 C 373.020 258.464,373.200 257.924,373.200 257.400 C 373.200 256.876,373.380 256.336,373.600 256.200 C 373.820 256.064,374.000 255.524,374.000 255.000 C 374.000 254.476,374.180 253.936,374.400 253.800 C 374.620 253.664,374.800 252.933,374.800 252.176 C 374.800 251.419,374.980 250.800,375.200 250.800 C 375.420 250.800,375.600 250.271,375.600 249.624 C 375.600 248.977,375.780 248.336,376.000 248.200 C 376.220 248.064,376.400 247.344,376.400 246.600 C 376.400 245.856,376.580 245.136,376.800 245.000 C 377.020 244.864,377.200 244.234,377.200 243.600 C 377.200 242.966,377.380 242.336,377.600 242.200 C 377.820 242.064,378.000 241.254,378.000 240.400 C 378.000 239.546,378.180 238.736,378.400 238.600 C 378.620 238.464,378.800 237.589,378.800 236.656 C 378.800 235.723,378.963 234.789,379.161 234.580 C 379.514 234.209,379.692 233.114,380.203 228.200 C 380.340 226.880,380.607 225.440,380.795 225.000 C 381.327 223.756,381.781 218.281,381.791 213.000 C 381.796 210.360,381.968 208.079,382.173 207.931 C 382.663 207.578,382.663 192.422,382.173 192.069 C 381.968 191.921,381.796 189.640,381.791 187.000 C 381.781 181.719,381.327 176.244,380.795 175.000 C 380.607 174.560,380.340 173.120,380.203 171.800 C 379.692 166.886,379.514 165.791,379.161 165.420 C 378.963 165.211,378.800 164.277,378.800 163.344 C 378.800 162.411,378.620 161.536,378.400 161.400 C 378.180 161.264,378.000 160.454,378.000 159.600 C 378.000 158.746,377.820 157.936,377.600 157.800 C 377.380 157.664,377.200 157.034,377.200 156.400 C 377.200 155.766,377.020 155.136,376.800 155.000 C 376.580 154.864,376.400 154.144,376.400 153.400 C 376.400 152.656,376.220 151.936,376.000 151.800 C 375.780 151.664,375.600 151.023,375.600 150.376 C 375.600 149.729,375.420 149.200,375.200 149.200 C 374.980 149.200,374.800 148.581,374.800 147.824 C 374.800 147.067,374.620 146.336,374.400 146.200 C 374.180 146.064,374.000 145.524,374.000 145.000 C 374.000 144.476,373.820 143.936,373.600 143.800 C 373.380 143.664,373.200 143.124,373.200 142.600 C 373.200 142.076,373.020 141.536,372.800 141.400 C 372.580 141.264,372.400 140.724,372.400 140.200 C 372.400 139.676,372.220 139.136,372.000 139.000 C 371.780 138.864,371.600 138.403,371.600 137.976 C 371.600 137.549,371.420 137.200,371.200 137.200 C 370.980 137.200,370.800 136.660,370.800 136.000 C 370.800 135.340,370.620 134.800,370.400 134.800 C 370.180 134.800,370.000 134.440,370.000 134.000 C 370.000 133.560,369.820 133.200,369.600 133.200 C 369.380 133.200,369.200 132.660,369.200 132.000 C 369.200 131.340,369.020 130.800,368.800 130.800 C 368.580 130.800,368.400 130.440,368.400 130.000 C 368.400 129.560,368.220 129.200,368.000 129.200 C 367.780 129.200,367.600 128.761,367.600 128.224 C 367.600 127.687,367.420 127.136,367.200 127.000 C 366.980 126.864,366.800 126.403,366.800 125.976 C 366.800 125.549,366.620 125.200,366.400 125.200 C 366.180 125.200,366.000 124.840,366.000 124.400 C 366.000 123.960,365.820 123.600,365.600 123.600 C 365.380 123.600,365.200 123.240,365.200 122.800 C 365.200 122.360,365.020 122.000,364.800 122.000 C 364.580 122.000,364.400 121.640,364.400 121.200 C 364.400 120.760,364.220 120.400,364.000 120.400 C 363.780 120.400,363.600 120.040,363.600 119.600 C 363.600 119.160,363.420 118.800,363.200 118.800 C 362.980 118.800,362.800 118.440,362.800 118.000 C 362.800 117.560,362.620 117.200,362.400 117.200 C 362.180 117.200,362.000 116.855,362.000 116.433 C 362.000 116.012,361.858 115.607,361.685 115.533 C 361.512 115.460,360.869 114.364,360.255 113.098 C 359.642 111.832,358.921 110.572,358.653 110.298 C 358.386 110.024,357.769 108.945,357.282 107.900 C 356.794 106.855,356.256 106.000,356.086 106.000 C 355.915 106.000,355.587 105.502,355.358 104.893 C 354.955 103.827,351.301 98.009,350.776 97.600 C 350.635 97.490,350.288 96.961,350.006 96.425 C 349.723 95.889,349.333 95.259,349.139 95.025 C 348.945 94.791,347.851 93.340,346.707 91.800 C 345.564 90.260,344.217 88.587,343.714 88.082 C 343.211 87.577,342.800 87.029,342.800 86.865 C 342.800 86.701,342.214 85.944,341.497 85.183 C 340.780 84.423,339.768 83.201,339.248 82.469 C 336.814 79.046,320.954 63.186,317.531 60.752 C 316.799 60.232,315.577 59.220,314.817 58.503 C 314.056 57.786,313.299 57.200,313.135 57.200 C 312.971 57.200,312.423 56.789,311.918 56.286 C 311.413 55.783,309.740 54.436,308.200 53.293 C 306.660 52.149,305.209 51.055,304.975 50.861 C 304.741 50.667,304.122 50.280,303.600 50.000 C 303.078 49.720,302.316 49.180,301.907 48.799 C 301.498 48.418,300.496 47.767,299.681 47.353 C 298.867 46.939,298.110 46.496,298.000 46.370 C 297.403 45.682,294.618 44.065,294.333 44.241 C 294.150 44.355,294.000 44.258,294.000 44.026 C 294.000 43.794,293.145 43.205,292.100 42.716 C 291.055 42.228,289.873 41.528,289.473 41.160 C 289.074 40.792,287.769 40.069,286.573 39.553 C 285.378 39.037,284.400 38.476,284.400 38.307 C 284.400 38.138,284.040 38.000,283.600 38.000 C 283.160 38.000,282.800 37.820,282.800 37.600 C 282.800 37.380,282.530 37.200,282.200 37.200 C 281.870 37.200,281.597 37.515,281.594 37.900 C 281.589 38.465,281.519 38.492,281.231 38.036 C 281.035 37.726,280.967 37.231,281.080 36.936 C 281.212 36.592,280.983 36.400,280.443 36.400 C 279.979 36.400,279.600 36.220,279.600 36.000 C 279.600 35.780,279.240 35.600,278.800 35.600 C 278.360 35.600,278.000 35.420,278.000 35.200 C 278.000 34.980,277.640 34.800,277.200 34.800 C 276.760 34.800,276.400 34.620,276.400 34.400 C 276.400 34.180,276.040 34.000,275.600 34.000 C 275.160 34.000,274.800 33.820,274.800 33.600 C 274.800 33.380,274.451 33.200,274.024 33.200 C 273.597 33.200,273.136 33.020,273.000 32.800 C 272.864 32.580,272.313 32.400,271.776 32.400 C 271.239 32.400,270.800 32.220,270.800 32.000 C 270.800 31.780,270.440 31.600,270.000 31.600 C 269.560 31.600,269.200 31.420,269.200 31.200 C 269.200 30.980,268.851 30.800,268.424 30.800 C 267.997 30.800,267.536 30.620,267.400 30.400 C 267.264 30.180,266.713 30.000,266.176 30.000 C 265.639 30.000,265.200 29.820,265.200 29.600 C 265.200 29.380,264.660 29.200,264.000 29.200 C 263.340 29.200,262.800 29.020,262.800 28.800 C 262.800 28.580,262.451 28.400,262.024 28.400 C 261.597 28.400,261.136 28.220,261.000 28.000 C 260.864 27.780,260.324 27.600,259.800 27.600 C 259.276 27.600,258.736 27.420,258.600 27.200 C 258.464 26.980,257.924 26.800,257.400 26.800 C 256.876 26.800,256.336 26.620,256.200 26.400 C 256.064 26.180,255.524 26.000,255.000 26.000 C 254.476 26.000,253.936 25.820,253.800 25.600 C 253.664 25.380,252.933 25.200,252.176 25.200 C 251.419 25.200,250.800 25.020,250.800 24.800 C 250.800 24.580,250.271 24.400,249.624 24.400 C 248.977 24.400,248.336 24.220,248.200 24.000 C 248.064 23.780,247.344 23.600,246.600 23.600 C 245.856 23.600,245.136 23.420,245.000 23.200 C 244.864 22.980,244.234 22.800,243.600 22.800 C 242.966 22.800,242.336 22.620,242.200 22.400 C 242.064 22.180,241.254 22.000,240.400 22.000 C 239.546 22.000,238.736 21.820,238.600 21.600 C 238.464 21.380,237.589 21.200,236.656 21.200 C 235.723 21.200,234.789 21.037,234.580 20.839 C 234.209 20.486,233.114 20.308,228.200 19.797 C 226.880 19.660,225.440 19.393,225.000 19.205 C 223.756 18.673,218.281 18.219,213.000 18.209 C 210.360 18.204,208.110 18.083,208.000 17.941 C 207.738 17.602,198.161 17.265,194.700 17.474 M208.228 18.788 C 208.441 19.001,211.042 19.232,214.008 19.300 L 219.400 19.425 213.300 19.513 C 209.442 19.568,207.200 19.453,207.200 19.200 C 207.200 18.948,204.533 18.800,200.000 18.800 C 195.467 18.800,192.800 18.948,192.800 19.200 C 192.800 19.453,190.558 19.568,186.700 19.513 L 180.600 19.425 185.992 19.300 C 188.958 19.232,191.559 19.001,191.772 18.788 C 192.286 18.274,207.714 18.274,208.228 18.788 M178.691 20.292 C 177.861 20.379,176.601 20.377,175.891 20.289 C 175.181 20.200,175.860 20.129,177.400 20.131 C 178.940 20.133,179.521 20.205,178.691 20.292 M223.891 20.292 C 223.061 20.379,221.801 20.377,221.091 20.289 C 220.381 20.200,221.060 20.129,222.600 20.131 C 224.140 20.133,224.721 20.205,223.891 20.292 M173.091 21.092 C 172.261 21.179,171.001 21.177,170.291 21.089 C 169.581 21.000,170.260 20.929,171.800 20.931 C 173.340 20.933,173.921 21.005,173.091 21.092 M229.900 21.091 C 229.075 21.178,227.725 21.178,226.900 21.091 C 226.075 21.005,226.750 20.934,228.400 20.934 C 230.050 20.934,230.725 21.005,229.900 21.091 M168.105 21.882 C 167.614 21.977,166.714 21.979,166.105 21.887 C 165.497 21.795,165.900 21.717,167.000 21.714 C 168.100 21.711,168.597 21.787,168.105 21.882 M234.105 21.882 C 233.614 21.977,232.714 21.979,232.105 21.887 C 231.497 21.795,231.900 21.717,233.000 21.714 C 234.100 21.711,234.597 21.787,234.105 21.882 M164.105 22.682 C 163.614 22.777,162.714 22.779,162.105 22.687 C 161.497 22.595,161.900 22.517,163.000 22.514 C 164.100 22.511,164.597 22.587,164.105 22.682 M238.105 22.682 C 237.614 22.777,236.714 22.779,236.105 22.687 C 235.497 22.595,235.900 22.517,237.000 22.514 C 238.100 22.511,238.597 22.587,238.105 22.682 M160.500 23.482 C 160.005 23.578,159.195 23.578,158.700 23.482 C 158.205 23.387,158.610 23.309,159.600 23.309 C 160.590 23.309,160.995 23.387,160.500 23.482 M241.300 23.482 C 240.805 23.578,239.995 23.578,239.500 23.482 C 239.005 23.387,239.410 23.309,240.400 23.309 C 241.390 23.309,241.795 23.387,241.300 23.482 M157.105 24.275 C 156.722 24.375,156.002 24.379,155.505 24.283 C 155.007 24.187,155.320 24.105,156.200 24.101 C 157.080 24.096,157.487 24.175,157.105 24.275 M244.705 24.275 C 244.322 24.375,243.602 24.379,243.105 24.283 C 242.607 24.187,242.920 24.105,243.800 24.101 C 244.680 24.096,245.087 24.175,244.705 24.275 M153.905 25.075 C 153.522 25.175,152.802 25.179,152.305 25.083 C 151.807 24.987,152.120 24.905,153.000 24.901 C 153.880 24.896,154.287 24.975,153.905 25.075 M247.905 25.075 C 247.522 25.175,246.802 25.179,246.305 25.083 C 245.807 24.987,246.120 24.905,247.000 24.901 C 247.880 24.896,248.287 24.975,247.905 25.075 M177.800 96.800 L 177.800 101.800 171.087 101.910 L 164.374 102.019 164.487 106.510 L 164.600 111.000 171.313 111.110 L 178.025 111.219 177.913 115.910 L 177.800 120.600 167.200 120.716 C 161.370 120.780,156.015 120.727,155.300 120.598 L 154.000 120.364 154.000 106.249 C 154.000 98.485,154.123 92.011,154.273 91.861 C 154.423 91.711,159.778 91.636,166.173 91.694 L 177.800 91.800 177.800 96.800 M212.015 92.000 C 212.136 95.266,211.997 101.282,211.792 101.612 C 211.624 101.884,210.019 102.016,207.463 101.969 C 202.532 101.877,202.517 101.602,207.718 106.770 L 211.974 111.000 212.033 115.464 C 212.111 121.377,213.314 120.826,200.416 120.788 C 186.932 120.748,187.932 121.169,188.085 115.594 L 188.200 111.400 192.500 111.286 C 197.863 111.145,197.865 111.262,192.380 105.998 L 187.960 101.757 188.028 97.186 C 188.065 94.673,188.183 92.388,188.291 92.108 C 188.538 91.462,211.991 91.355,212.015 92.000 M246.000 96.557 C 246.000 102.384,246.275 102.081,241.098 101.967 C 236.382 101.863,236.379 101.834,241.510 106.732 L 246.000 111.017 246.000 115.662 C 246.000 121.340,247.332 120.789,233.600 120.788 C 220.897 120.788,221.943 121.244,222.086 115.768 L 222.200 111.400 226.500 111.286 C 231.728 111.148,231.736 111.519,226.400 106.200 L 222.000 101.814 222.000 96.973 C 222.000 94.311,222.120 92.013,222.267 91.867 C 222.413 91.720,227.813 91.600,234.267 91.600 L 246.000 91.600 246.000 96.557 M277.246 134.900 C 277.317 135.666,276.824 141.716,276.015 150.000 C 275.790 152.310,275.429 156.270,275.212 158.800 C 274.996 161.330,274.459 167.270,274.019 172.000 C 273.129 181.556,271.792 195.962,271.197 202.400 C 270.984 204.710,270.442 210.470,269.992 215.200 C 269.542 219.930,268.826 227.670,268.401 232.400 C 266.877 249.325,266.019 258.695,265.432 264.800 C 263.910 280.648,263.560 284.426,263.329 287.505 C 263.010 291.751,263.114 291.658,257.000 293.181 C 254.140 293.894,251.260 294.640,250.600 294.840 C 248.690 295.416,241.421 297.399,236.200 298.768 C 233.560 299.460,230.770 300.204,230.000 300.421 C 228.189 300.932,209.432 306.002,204.079 307.428 L 199.958 308.525 196.079 307.465 C 192.276 306.426,176.340 302.116,172.000 300.953 C 170.790 300.628,167.820 299.834,165.400 299.188 C 162.980 298.542,159.650 297.644,158.000 297.193 C 147.339 294.277,144.255 293.458,140.213 292.469 C 136.936 291.667,137.090 291.986,136.434 284.600 C 135.592 275.118,134.385 262.129,134.000 258.400 C 133.784 256.310,133.326 251.450,132.982 247.600 C 132.638 243.750,132.016 236.820,131.600 232.200 C 131.184 227.580,130.567 220.650,130.229 216.800 C 129.891 212.950,129.434 208.090,129.213 206.000 C 128.992 203.910,128.448 198.150,128.005 193.200 C 127.561 188.250,127.011 182.490,126.783 180.400 C 126.554 178.310,126.095 173.450,125.762 169.600 C 124.412 153.996,124.164 151.258,123.195 141.200 C 122.993 139.110,122.822 136.725,122.814 135.900 L 122.800 134.400 200.000 134.400 C 261.469 134.400,277.209 134.502,277.246 134.900 M25.083 153.695 C 24.987 154.193,24.905 153.880,24.901 153.000 C 24.896 152.120,24.975 151.713,25.075 152.095 C 25.175 152.478,25.179 153.198,25.083 153.695 M375.083 153.695 C 374.987 154.193,374.905 153.880,374.901 153.000 C 374.896 152.120,374.975 151.713,375.075 152.095 C 375.175 152.478,375.179 153.198,375.083 153.695 M24.283 156.895 C 24.187 157.393,24.105 157.080,24.101 156.200 C 24.096 155.320,24.175 154.913,24.275 155.295 C 24.375 155.678,24.379 156.398,24.283 156.895 M375.883 156.895 C 375.787 157.393,375.705 157.080,375.701 156.200 C 375.696 155.320,375.775 154.913,375.875 155.295 C 375.975 155.678,375.979 156.398,375.883 156.895 M23.256 161.566 C 23.038 161.700,22.786 162.528,22.697 163.405 C 22.536 164.985,22.534 164.982,22.467 163.100 C 22.430 162.055,22.580 161.200,22.800 161.200 C 23.020 161.200,23.231 160.435,23.270 159.500 L 23.340 157.800 23.496 159.560 C 23.582 160.529,23.474 161.431,23.256 161.566 M377.223 161.200 C 377.430 161.200,377.569 162.055,377.530 163.100 L 377.460 165.000 377.307 163.300 C 377.223 162.365,376.984 161.600,376.777 161.600 C 376.570 161.600,376.431 160.745,376.470 159.700 L 376.540 157.800 376.693 159.500 C 376.777 160.435,377.016 161.200,377.223 161.200 M21.887 167.895 C 21.795 168.503,21.717 168.100,21.714 167.000 C 21.711 165.900,21.787 165.403,21.882 165.895 C 21.977 166.386,21.979 167.286,21.887 167.895 M378.287 167.895 C 378.195 168.503,378.117 168.100,378.114 167.000 C 378.111 165.900,378.187 165.403,378.282 165.895 C 378.377 166.386,378.379 167.286,378.287 167.895 M199.223 165.902 C 168.326 165.967,151.359 166.143,151.201 166.398 C 151.067 166.615,151.177 168.280,151.447 170.097 C 151.716 171.913,152.303 175.879,152.751 178.910 C 153.198 181.940,153.684 184.612,153.829 184.846 C 154.014 185.146,161.075 185.186,177.588 184.980 C 200.961 184.688,203.401 184.797,200.079 185.982 C 199.265 186.272,195.540 187.813,191.800 189.405 C 188.060 190.997,182.750 193.242,180.000 194.394 C 177.250 195.546,173.830 196.989,172.400 197.600 C 170.970 198.211,167.550 199.649,164.800 200.794 C 162.050 201.939,158.828 203.311,157.639 203.843 L 155.478 204.811 155.780 209.306 C 155.945 211.778,156.198 215.900,156.340 218.468 C 156.483 221.035,156.711 223.246,156.847 223.381 C 156.983 223.517,171.833 223.622,189.847 223.616 C 208.475 223.609,222.841 223.759,223.160 223.963 C 223.590 224.238,223.655 224.861,223.442 226.661 C 223.289 227.947,222.903 233.313,222.583 238.585 C 221.936 249.251,222.101 248.765,218.800 249.711 C 217.590 250.058,215.430 250.698,214.000 251.133 C 212.570 251.569,208.935 252.673,205.922 253.587 L 200.444 255.249 192.122 252.991 C 187.545 251.750,183.350 250.580,182.800 250.392 C 182.250 250.204,181.227 249.937,180.528 249.799 C 178.635 249.426,178.535 249.128,178.028 242.400 C 177.771 238.990,177.476 235.795,177.373 235.300 L 177.185 234.400 167.733 234.400 L 158.282 234.400 158.540 237.700 C 160.301 260.175,160.678 263.465,161.533 263.805 C 162.258 264.093,174.192 267.622,178.400 268.792 C 182.449 269.919,190.597 272.316,194.970 273.668 C 199.255 274.992,200.764 275.017,204.600 273.829 C 205.700 273.489,209.210 272.489,212.400 271.607 C 215.590 270.726,218.740 269.830,219.400 269.617 C 220.060 269.404,221.680 268.963,223.000 268.637 C 225.076 268.125,227.652 267.419,232.600 266.006 C 233.260 265.818,234.970 265.359,236.400 264.987 C 237.830 264.615,239.201 264.105,239.447 263.855 C 239.870 263.425,240.534 256.323,243.005 225.800 C 243.539 219.200,244.141 211.910,244.343 209.600 C 244.544 207.290,244.629 205.265,244.531 205.100 C 244.433 204.935,234.553 204.800,222.576 204.800 C 210.599 204.800,200.800 204.650,200.800 204.466 C 200.800 204.282,203.095 203.177,205.900 202.010 C 208.705 200.844,214.510 198.398,218.800 196.575 C 223.090 194.753,230.920 191.438,236.200 189.210 C 241.480 186.981,245.980 184.979,246.200 184.760 C 246.813 184.149,247.976 166.695,247.436 166.200 C 247.149 165.937,230.659 165.835,199.223 165.902 M21.092 173.091 C 21.005 173.921,20.933 173.340,20.931 171.800 C 20.929 170.260,21.000 169.581,21.089 170.291 C 21.177 171.001,21.179 172.261,21.092 173.091 M379.253 171.853 C 379.178 175.111,378.800 175.067,378.800 171.800 C 378.800 170.297,378.914 169.180,379.053 169.320 C 379.192 169.459,379.282 170.599,379.253 171.853 M20.292 178.691 C 20.205 179.521,20.133 178.940,20.131 177.400 C 20.129 175.860,20.200 175.181,20.289 175.891 C 20.377 176.601,20.379 177.861,20.292 178.691 M379.892 178.691 C 379.805 179.521,379.733 178.940,379.731 177.400 C 379.729 175.860,379.800 175.181,379.889 175.891 C 379.977 176.601,379.979 177.861,379.892 178.691 M19.211 192.730 C 18.657 192.914,18.646 207.200,19.200 207.200 C 19.453 207.200,19.568 209.442,19.513 213.300 L 19.425 219.400 19.300 214.008 C 19.232 211.042,19.001 208.441,18.788 208.228 C 18.261 207.701,18.273 192.126,18.800 191.800 C 19.028 191.659,19.238 189.195,19.288 186.076 L 19.377 180.600 19.500 186.596 C 19.579 190.455,19.476 192.641,19.211 192.730 M381.212 191.772 C 381.436 191.996,381.600 195.472,381.600 200.000 C 381.600 204.528,381.436 208.004,381.212 208.228 C 380.999 208.441,380.768 211.042,380.700 214.008 L 380.575 219.400 380.487 213.300 C 380.432 209.442,380.547 207.200,380.800 207.200 C 381.052 207.200,381.200 204.533,381.200 200.000 C 381.200 195.467,381.052 192.800,380.800 192.800 C 380.547 192.800,380.432 190.558,380.487 186.700 L 380.575 180.600 380.700 185.992 C 380.768 188.958,380.999 191.559,381.212 191.772 M20.292 223.891 C 20.205 224.721,20.133 224.140,20.131 222.600 C 20.129 221.060,20.200 220.381,20.289 221.091 C 20.377 221.801,20.379 223.061,20.292 223.891 M379.892 223.891 C 379.805 224.721,379.733 224.140,379.731 222.600 C 379.729 221.060,379.800 220.381,379.889 221.091 C 379.977 221.801,379.979 223.061,379.892 223.891 M21.091 229.900 C 21.005 230.725,20.934 230.050,20.934 228.400 C 20.934 226.750,21.005 226.075,21.091 226.900 C 21.178 227.725,21.178 229.075,21.091 229.900 M379.092 229.491 C 379.005 230.321,378.933 229.740,378.931 228.200 C 378.929 226.660,379.000 225.981,379.089 226.691 C 379.177 227.401,379.179 228.661,379.092 229.491 M21.887 233.895 C 21.795 234.503,21.717 234.100,21.714 233.000 C 21.711 231.900,21.787 231.403,21.882 231.895 C 21.977 232.386,21.979 233.286,21.887 233.895 M378.287 233.895 C 378.195 234.503,378.117 234.100,378.114 233.000 C 378.111 231.900,378.187 231.403,378.282 231.895 C 378.377 232.386,378.379 233.286,378.287 233.895 M23.223 238.400 C 23.430 238.400,23.569 239.255,23.530 240.300 L 23.460 242.200 23.307 240.500 C 23.223 239.565,22.984 238.800,22.777 238.800 C 22.570 238.800,22.431 237.945,22.470 236.900 L 22.540 235.000 22.693 236.700 C 22.777 237.635,23.016 238.400,23.223 238.400 M377.256 238.766 C 377.038 238.900,376.786 239.728,376.697 240.605 C 376.536 242.185,376.534 242.182,376.467 240.300 C 376.430 239.255,376.580 238.400,376.800 238.400 C 377.020 238.400,377.231 237.635,377.270 236.700 L 377.340 235.000 377.496 236.760 C 377.582 237.729,377.474 238.631,377.256 238.766 M24.283 244.495 C 24.187 244.993,24.105 244.680,24.101 243.800 C 24.096 242.920,24.175 242.513,24.275 242.895 C 24.375 243.278,24.379 243.998,24.283 244.495 M375.883 244.495 C 375.787 244.993,375.705 244.680,375.701 243.800 C 375.696 242.920,375.775 242.513,375.875 242.895 C 375.975 243.278,375.979 243.998,375.883 244.495 M25.083 247.695 C 24.987 248.193,24.905 247.880,24.901 247.000 C 24.896 246.120,24.975 245.713,25.075 246.095 C 25.175 246.478,25.179 247.198,25.083 247.695 M375.083 247.695 C 374.987 248.193,374.905 247.880,374.901 247.000 C 374.896 246.120,374.975 245.713,375.075 246.095 C 375.175 246.478,375.179 247.198,375.083 247.695 M153.905 375.075 C 153.522 375.175,152.802 375.179,152.305 375.083 C 151.807 374.987,152.120 374.905,153.000 374.901 C 153.880 374.896,154.287 374.975,153.905 375.075 M247.905 375.075 C 247.522 375.175,246.802 375.179,246.305 375.083 C 245.807 374.987,246.120 374.905,247.000 374.901 C 247.880 374.896,248.287 374.975,247.905 375.075 M157.105 375.875 C 156.722 375.975,156.002 375.979,155.505 375.883 C 155.007 375.787,155.320 375.705,156.200 375.701 C 157.080 375.696,157.487 375.775,157.105 375.875 M244.705 375.875 C 244.322 375.975,243.602 375.979,243.105 375.883 C 242.607 375.787,242.920 375.705,243.800 375.701 C 244.680 375.696,245.087 375.775,244.705 375.875 M160.500 376.682 C 160.005 376.778,159.195 376.778,158.700 376.682 C 158.205 376.587,158.610 376.509,159.600 376.509 C 160.590 376.509,160.995 376.587,160.500 376.682 M241.300 376.682 C 240.805 376.778,239.995 376.778,239.500 376.682 C 239.005 376.587,239.410 376.509,240.400 376.509 C 241.390 376.509,241.795 376.587,241.300 376.682 M164.105 377.482 C 163.614 377.577,162.714 377.579,162.105 377.487 C 161.497 377.395,161.900 377.317,163.000 377.314 C 164.100 377.311,164.597 377.387,164.105 377.482 M238.105 377.482 C 237.614 377.577,236.714 377.579,236.105 377.487 C 235.497 377.395,235.900 377.317,237.000 377.314 C 238.100 377.311,238.597 377.387,238.105 377.482 M168.105 378.282 C 167.614 378.377,166.714 378.379,166.105 378.287 C 165.497 378.195,165.900 378.117,167.000 378.114 C 168.100 378.111,168.597 378.187,168.105 378.282 M234.105 378.282 C 233.614 378.377,232.714 378.379,232.105 378.287 C 231.497 378.195,231.900 378.117,233.000 378.114 C 234.100 378.111,234.597 378.187,234.105 378.282 M174.333 379.000 C 174.034 379.299,169.612 379.346,169.320 379.053 C 169.180 378.914,170.297 378.800,171.800 378.800 C 173.303 378.800,174.443 378.890,174.333 379.000 M229.491 379.092 C 228.661 379.179,227.401 379.177,226.691 379.089 C 225.981 379.000,226.660 378.929,228.200 378.931 C 229.740 378.933,230.321 379.005,229.491 379.092 M178.691 379.892 C 177.861 379.979,176.601 379.977,175.891 379.889 C 175.181 379.800,175.860 379.729,177.400 379.731 C 178.940 379.733,179.521 379.805,178.691 379.892 M223.891 379.892 C 223.061 379.979,221.801 379.977,221.091 379.889 C 220.381 379.800,221.060 379.729,222.600 379.731 C 224.140 379.733,224.721 379.805,223.891 379.892 M192.800 380.800 C 192.800 381.052,195.467 381.200,200.000 381.200 C 204.533 381.200,207.200 381.052,207.200 380.800 C 207.200 380.547,209.508 380.432,213.500 380.488 L 219.800 380.575 214.208 380.700 C 211.133 380.768,208.442 380.998,208.228 381.212 C 208.004 381.436,204.533 381.600,200.000 381.600 C 195.467 381.600,191.996 381.436,191.772 381.212 C 191.558 380.998,188.867 380.768,185.792 380.700 L 180.200 380.575 186.500 380.488 C 190.492 380.432,192.800 380.547,192.800 380.800  M -25 0 L -5 0 L -5 20 L -25 20 Z M 405 0 L 425 0 L 425 20 L 405 20 Z" stroke="none" fill="#349cd4" fill-rule="evenodd" transform="translate(490,0)"></path></g></svg>